<svg id="KAUST" class="logo" data-name="KAUST" version="1.1" viewBox="0 0 168 48" width="168" height="48" xmlns="http://www.w3.org/2000/svg">
 <title>King Abdullah University of Science and Technology</title>
 <defs>
  <style>.cls-1{fill:#f7944a;}.cls-2{fill:#ffbf0f;}.cls-3{fill:#bdcc29;}.cls-4{fill:#00ab9e;}.cls-5{fill:#756b5b;}</style>
 </defs>
 <title>logo-ai</title>
 <path class="cls-1" d="M42,24.13c0,4.93-1.2,8.23-2.94,10.43a7.16,7.16,0,0,0,1.59.72c1.61-2.58,2.64-6.28,2.64-11.53a23.77,23.77,0,0,0-.42-4.24c-.46,0-1,.11-1.47.21a17,17,0,0,1,.6,4.41m-2.65.39c0,3.79-1,6.32-2.57,8a9,9,0,0,0,1.32,1.37c1.64-2.05,2.73-5.14,2.73-9.75A16.1,16.1,0,0,0,40.3,20a12.88,12.88,0,0,0-1.6.5,12.29,12.29,0,0,1,.67,4.05m-2.57.37a7.13,7.13,0,0,1-1.6,4.81,12.17,12.17,0,0,0,1,2c1.46-1.67,2.2-4.07,2.2-7.21a11.23,11.23,0,0,0-.61-3.68,9.28,9.28,0,0,0-1.54.9,9.62,9.62,0,0,1,.51,3.15m7.46-5.41a24,24,0,0,1,.39,4.27c0,5.3-1,9.1-2.61,11.81a7,7,0,0,0,.81,0c7.42,0,9-6.91,9-9.91,0-4.8-4.92-6.09-7.62-6.22m-9.37,9.38a6.58,6.58,0,0,0,1.11-4,8.86,8.86,0,0,0-.37-2.6,4.09,4.09,0,0,0-1.38,3,11.52,11.52,0,0,0,.64,3.55"/>
 <path class="cls-2" d="M28.9,10a12.2,12.2,0,0,1,9.57,4.11,11.09,11.09,0,0,0,.62-2.5,11.36,11.36,0,0,0-8.48-3.25,38.17,38.17,0,0,0-11.11,2q-.22.8-.33,1.38A30.78,30.78,0,0,1,28.9,10M34,19.59c-2.4-2.47-6.42-2.84-8.54-2.84a18.86,18.86,0,0,0-3.41.29,17.06,17.06,0,0,0,8.83,3.26A7,7,0,0,0,34,19.59m-12.76-3.2A18.7,18.7,0,0,1,25.48,16c2.32,0,6.72.41,9.3,3.21a7.59,7.59,0,0,0,1.45-1.25,11.25,11.25,0,0,0-9-4,23,23,0,0,0-7.14,1.16,8.69,8.69,0,0,0,1.22,1.3M39.08,9.85C38.8,6.13,36.83,0,30,0,24.69,0,21.5,5,20,8.79A38.49,38.49,0,0,1,30.61,7a12.93,12.93,0,0,1,8.47,2.83M27.19,13a12.2,12.2,0,0,1,9.66,4.18A10.83,10.83,0,0,0,38,15.25a11.09,11.09,0,0,0-9.08-4.09A30.68,30.68,0,0,0,19.13,13a4.18,4.18,0,0,0,.42,1.28A23.54,23.54,0,0,1,27.19,13"/>
 <path class="cls-3" d="M16.16,22a5.84,5.84,0,0,0,.67,2.45A21.06,21.06,0,0,0,18,18.67,4.15,4.15,0,0,0,16.16,22m-.79,0a5,5,0,0,1,2.57-4.3,8.14,8.14,0,0,0-.25-1.6c-2.05,1.15-3.5,2.8-3.5,5.05a11.22,11.22,0,0,0,1.69,5.27,8.92,8.92,0,0,0,.57-1.06A7.05,7.05,0,0,1,15.37,22m-2.66-9.66c-.34,0-.67,0-1,0C8.65,12.32,2,14.89,2,19.62c0,5.07,5.64,8.2,9.31,8.81a21.27,21.27,0,0,1-2.48-9,8.89,8.89,0,0,1,3.88-7.09m.55,8.81c0-2.68,1.73-4.6,4.11-5.9a4.75,4.75,0,0,0-.7-1.12c-2.56,1.42-4.45,3.41-4.45,6.16a16.26,16.26,0,0,0,2.38,7.51,4.16,4.16,0,0,0,.7-.63,12.44,12.44,0,0,1-2-6m-2.21-.86c0-3.09,2-5.35,4.68-7a5.53,5.53,0,0,0-1.24-.62c-2.55,1.66-4.33,3.87-4.33,6.73a20.73,20.73,0,0,0,2.63,9.05,3.52,3.52,0,0,0,.81-.16,17.32,17.32,0,0,1-2.55-8"/>
 <path class="cls-4" d="M29.21,38.81c-5.92,0-10.85-3.69-14.08-8.09-.24.18-.46.37-.68.55,3.48,5.13,8.87,9.48,15.34,9.48a15.61,15.61,0,0,0,4.54-.64,17.2,17.2,0,0,0,.28-2.26,14.87,14.87,0,0,1-5.4,1m-.58-3.31c-4.85,0-8.92-2.69-11.65-6-.31.18-.62.35-.92.55,3,4.1,7.63,7.55,13.15,7.55a13.31,13.31,0,0,0,5.43-1.06,10.31,10.31,0,0,0-.29-2.25,13,13,0,0,1-5.72,1.17m-4.53-8a13.44,13.44,0,0,0-4.28.79A12.56,12.56,0,0,0,28,31.45a11.39,11.39,0,0,0,4.34-.74c-2.59-2.7-6.69-3.23-8.28-3.23M13.49,32.13a7.59,7.59,0,0,0-2.58,5.12C10.91,44.13,21.61,48,25.76,48,30.67,48,33,44.89,34,41.59a17.43,17.43,0,0,1-4.19.49c-6.85,0-12.57-4.55-16.29-9.95M28,32.24a13.36,13.36,0,0,1-9-3.67c-.42.16-.82.35-1.23.55a14.51,14.51,0,0,0,10.85,5.45,11.75,11.75,0,0,0,5.44-1.14,7.9,7.9,0,0,0-1.14-2.09,11.9,11.9,0,0,1-4.89.9"/>
 <path class="cls-5" d="M130.67,1.73v8.2c.7,0,1.17-.57,1.17-1.61V1.73Zm-18,6.35a1.4,1.4,0,0,0,1.4.92H117V8.08a1.4,1.4,0,0,0,1.4.92h.67a1.48,1.48,0,0,0,1-.29,2.46,2.46,0,0,0,.6-1.12c-.11,1,1.67,1.3,2.72,1.41s1-.52,1-.92a1.4,1.4,0,0,0,1.39.92h2.91V1.73h-1.17V8.08h-1.89a1.16,1.16,0,0,1-1.24-1.3c0-1.48-.32-2.85-1.67-2.85-2.15,0-2.47,2.42-3.2,3.6a.9.9,0,0,1-.92.55h-.38A1.16,1.16,0,0,1,117,6.78V1.73h-1.16V8.08h-1.94a1.16,1.16,0,0,1-1.24-1.3V1.73H111.5V8.08h-5.83c-1.72,0-1.44-1.39-.61-2.35l-.29-.28c-1.28,1-2,2.5-1,3.28A1.6,1.6,0,0,0,104.9,9h7.77Zm10.57-2V8a3.59,3.59,0,0,1-2.33-1c.14-.42.22-.73.37-1.16.27-.79.6-1.53,1.27-1.35.48.12.69.8.69,1.59ZM77.76,1.73v8.2c.7,0,1.17-.57,1.17-1.61V1.73ZM71.46,9V8.08a1.42,1.42,0,0,0,1.4.92H75.8V1.73H74.64V8.08H72.7a1.16,1.16,0,0,1-1.24-1.3V1.73H70.3V8.08H68.38V7.6c0-1.91-1.23-3.5-3-2.21-1.19.88-2,2.56-.89,3.34A1.6,1.6,0,0,0,65.61,9Zm-4.35-.93h-.73c-1.72,0-1.52-1.67-.55-2.42s1.3.41,1.3,1.79ZM152.94,8a3.59,3.59,0,0,1-2.34-1c.14-.42.22-.73.37-1.17.27-.78.61-1.52,1.27-1.34.48.12.7.8.7,1.59Zm-8.58-2,.57-.83c1.6.15,1.35,1.47.58,2.31a2.54,2.54,0,0,0-1.15-1.48Zm-4.57,2.13h-.73c-1.73,0-1.52-1.67-.55-2.42s1.3.4,1.3,1.79Zm12.65-4.14c-2.15,0-2.47,2.42-3.19,3.6a.92.92,0,0,1-.93.55H146c.71-.67,1.64-2.32.93-3.12a3.75,3.75,0,0,0-2.57-.8L143.1,5.94A3.14,3.14,0,0,1,145,8.08h-3.92V7.61c0-1.93-1.23-3.51-3-2.22-1.18.88-2,2.56-.88,3.35a1.61,1.61,0,0,0,1.07.26h5.84a1.48,1.48,0,0,0,1.14-.33,1.51,1.51,0,0,0,1.15.33h2.36a1.48,1.48,0,0,0,1-.29,2.53,2.53,0,0,0,.6-1.11c-.11,1,1.68,1.29,2.72,1.4s1-.52,1-.92V6.78c0-1.48-.32-2.85-1.67-2.85ZM96.68,8.08a1.93,1.93,0,0,1-2-2.09c0-1.21,1.17-1.61,3-1.08l.13-.35a5.66,5.66,0,0,0-2-.53c-1.62,0-2.39.8-2.39,2.09a2.21,2.21,0,0,0,.92,2H91.73a1.16,1.16,0,0,1-1.24-1.3V5.62H89.32V8.08H86.75a1.16,1.16,0,0,1-1.24-1.3V4.07H84.34v4H82.23c-.58,0-.52-.35-.3-.67l-.31-.21C80.88,8,81,9,82.35,9h3.16V8.08a1.4,1.4,0,0,0,1.4.92h3.58V8.08a1.4,1.4,0,0,0,1.4.92h6.17V8.08ZM164,6.18a3.22,3.22,0,0,0-2.93-2l-.08.42c2.35.41,1.2,1.88,3.18,3.47h-6.42V1.73h-1.17V7.39c0,1,.47,1.61,1.17,1.61h8.64V8.08A3.42,3.42,0,0,1,164,6.18Zm-73.75,5H89.08V10.11h1.16Zm50.27-7.61h-1.15v-1h1.15Zm-1.76,0H137.6v-1h1.15Zm24.55,7.6h-1.15V10.1h1.15ZM106.09,4.86a2.73,2.73,0,0,1,2.06-.09l.61-.75c-1.47,0-2-.72-1.61-1.2s.93-.14,1.38.16l.62-.76a1.53,1.53,0,0,0-2.3.34,1.08,1.08,0,0,0,0,1.41,2.45,2.45,0,0,0-1.07.6Z"/>
 <path class="cls-5" d="M116.33,20.07h-.74c-1.72,0-1.51-1.67-.55-2.42s1.3.41,1.3,1.79ZM125.22,18l.56-.84c1.6.15,1.35,1.47.58,2.31A2.48,2.48,0,0,0,125.22,18Zm9-4.22v6.35h-1.93a1.16,1.16,0,0,1-1.24-1.3V13.73h-1.17v6.35h-3.11c.7-.67,1.64-2.32.92-3.12a3.71,3.71,0,0,0-2.56-.8L124,17.94a3.15,3.15,0,0,1,1.88,2.14h-3.92a1.16,1.16,0,0,1-1.24-1.3V13.73h-1.17v6.35H117.6V19.6c0-1.91-1.24-3.5-3-2.21-1.18.88-1.95,2.56-.89,3.35a1.68,1.68,0,0,0,1.08.26h1.39a4.5,4.5,0,0,1-2.69,3.92l.11.35c1.77-.52,3.42-1.28,3.84-4.27h3.21v-.92a1.41,1.41,0,0,0,1.4.92H125a1.54,1.54,0,0,0,1.15-.32,1.52,1.52,0,0,0,1.14.32h3.83V19.91a1,1,0,0,0,.42.83,1.61,1.61,0,0,0,1.07.26h2.85V13.73ZM98.93,20.07H98.2c-1.73,0-1.52-1.67-.55-2.42s1.3.41,1.3,1.79Zm1.27-.47c0-1.91-1.23-3.51-3-2.21-1.19.88-2,2.56-.89,3.35a1.64,1.64,0,0,0,1.08.26h1.38a4.49,4.49,0,0,1-2.69,3.92l.12.35A4.69,4.69,0,0,0,100.08,21a10.06,10.06,0,0,0,.12-1.4Zm-31.83.48V19.6c0-1.91-1.24-3.51-3-2.21-1.19.88-2,2.56-.89,3.35a1.66,1.66,0,0,0,1.08.26h6.1v-.92a1.43,1.43,0,0,0,1.4.92h3v-.92a1.42,1.42,0,0,0,1.4.92h3.78c.91,0,1-.53,1-.92a1.41,1.41,0,0,0,1.39.92h3.06v-.92a1.42,1.42,0,0,0,1.4.92H91V13.73H89.84v6.35H88a1.16,1.16,0,0,1-1.24-1.3V17.61H85.54v2.47h-2a1.29,1.29,0,0,1-1.26-1.25c-.13-.88-.53-2.28-1.79-2.28a1.42,1.42,0,0,0-1.55,1.68,3.26,3.26,0,0,0,1.55,1.85H77.33a1.16,1.16,0,0,1-1.24-1.3V17.61H74.92v2.47h-2a1.16,1.16,0,0,1-1.24-1.3V17.61H70.53v2.47Zm11.5-2.44c1.21-.72,1.54,1.7,1.54,2.43C79.85,19.22,79.2,18,79.87,17.64ZM67.09,20.07h-.73c-1.72,0-1.52-1.67-.55-2.42s1.3.41,1.3,1.79Zm.72-4.52H66.66V14.5h1.15Zm8.28,1.05H74.94V15.55h1.15Zm-10-1.05H64.9V14.5h1.16Zm15.7,0H80.61V14.5h1.15Zm-1.75,0H78.86V14.5H80Zm7.58,1.05H86.44V15.55h1.15Zm-1.76,0H84.68V15.55h1.15ZM72.56,23.17H71.4V22.12h1.16Zm-1.76,0H69.65V22.12H70.8ZM110.25,20V18c0-.78-.22-1.46-.7-1.59-.67-.17-1,.56-1.27,1.35-.13.38-.31,1-.44,1.37a11.68,11.68,0,0,1,2.41.79Zm-.5-4c1.35,0,1.67,1.36,1.67,2.84v1.3c0,.4-.12,1.29-1,.93-1-.44-2.5-1.23-3.14-.8-.43.29-.38.72-.38,1.65v2.22c0,1-.47,1.61-1.16,1.61V21.19a2,2,0,0,1,.87-1.88l.07,0c.62-1.25,1.1-3.33,3.07-3.33ZM93.1,13.73v8.2c.7,0,1.17-.57,1.17-1.61V13.73Z"/>
 <path class="cls-5" d="M69,28.8h1v.9H69Zm0,1.93H70V35h-.9Zm2.35,0h.91v1h0a1.7,1.7,0,0,1,1.5-1.11,1.11,1.11,0,0,1,1.08,1.25V35H74V32.33c0-.54-.08-1-.53-1-.9,0-1.15,1.4-1.15,1.93V35H71.4Zm8.23,4.15c0,1.2-.39,2.14-2.11,2.14a4.5,4.5,0,0,1-1.22-.17V36a2.63,2.63,0,0,0,1.37.52c1,0,1.06-.66,1.06-1.6V34.4h0a1.16,1.16,0,0,1-1.11.6C76.47,35,76,34.08,76,32.82s.37-2.19,1.61-2.19a1.17,1.17,0,0,1,1.11.8h0v-.71h.9Zm-1.79-.4c.79,0,.86-.91.86-1.61s-.11-1.67-.86-1.67-.87.93-.87,1.62.15,1.66.87,1.66Zm7.22-5.68h1L88.15,35h-1l-.56-1.84H84.43L83.87,35H83Zm-.44,3.77h1.76l-.86-2.87h0Zm5.16-1.25h0A1.34,1.34,0,0,1,91,30.63c1.15,0,1.61,1,1.61,2.25,0,1.58-.77,2.22-1.9,2.22-1.67,0-1.83-1.12-1.83-2.22V28.8h.91Zm.92,3.41c.73,0,.91-1,.91-1.85s-.17-1.73-.91-1.73-.88.92-.88,1.73C89.82,34,90,34.72,90.7,34.73Zm5.42-.43h0a1.18,1.18,0,0,1-1.11.8c-1.23,0-1.61-1-1.61-2.23s.48-2.24,1.61-2.24a1.16,1.16,0,0,1,1.11.69h0V28.8H97V35h-.91Zm-.89.23c.75,0,.85-1,.85-1.66s-.07-1.72-.85-1.72-.86,1-.86,1.72S94.5,34.53,95.23,34.53ZM101,34h0a1.69,1.69,0,0,1-1.49,1.11,1.11,1.11,0,0,1-1.08-1.25V30.73h.9v2.68c0,.53.09,1,.54,1,.9,0,1.15-1.41,1.15-1.93V30.73h.91V35H101V34Zm2.36-5.19h.9V35h-.9Zm2.4,0h.9V35h-.9Zm4.46,5.6h0a1.36,1.36,0,0,1-1.21.7A1.09,1.09,0,0,1,107.82,34c0-1.32,1.82-1.38,2.39-1.4v-.39c0-.46,0-1.23-.6-1.23s-.66.43-.69.93h-1c.05-.64.3-1.31,1.65-1.31s1.5.78,1.5,1.62V35h-.9v-.6Zm0-1.4c-.38,0-1.4.11-1.4.9,0,.38.22.64.52.64a1,1,0,0,0,.88-1Zm2.28-4.2h.91v2.94h0a1.68,1.68,0,0,1,1.5-1.11A1.11,1.11,0,0,1,116,31.88V35h-.9V32.33c0-.54-.08-1-.54-1-.9,0-1.15,1.4-1.15,1.93V35h-.91Zm11.64,4c0,1.13-.19,2.3-2.1,2.3s-2.1-1.17-2.1-2.3v-4h1v4c0,1,.07,1.76,1.11,1.76s1.11-.77,1.11-1.76v-4h1v4Zm1.37-2.07h.91v1h0a1.69,1.69,0,0,1,1.5-1.11A1.12,1.12,0,0,1,129,31.88V35h-.91V32.33c0-.54-.08-1-.54-1-.9,0-1.15,1.4-1.15,1.93V35h-.91Zm4.91-1.93h1v.9h-1Zm0,1.93h.91V35h-.91Zm1.73,0h1l1.1,3.05h0l1-3.05h.84L134.58,35h-.79Zm7.76,4.13a3.07,3.07,0,0,1-1.26.24c-1.18,0-2.13-.7-2.13-2.42,0-1.19.48-2.05,1.82-2.05s1.64.93,1.64,1.75h-2.56c0,.84.38,2.25,1.66,2.25a1.83,1.83,0,0,0,.82-.19v.42ZM139.11,32c0-.34-.11-1-.79-1s-.83.72-.85,1Zm2-1.24h.9v1.08h0c.29-.57.61-1.12,1.39-1.18v.94c-.87,0-1.41.32-1.41,1.47v2h-.9Zm5.37.84a2,2,0,0,0-1.08-.42c-.28,0-.6.13-.6.45,0,.77,2,.84,2,2.2,0,.93-.72,1.3-1.62,1.3a3.56,3.56,0,0,1-1.15-.19v-.83a2.19,2.19,0,0,0,1.19.45c.52,0,.74-.27.74-.55,0-.75-1.93-.9-1.93-2.12,0-.65.42-1.23,1.49-1.23a3.26,3.26,0,0,1,1,.17v.77Zm1.22-2.77h1v.9h-1Zm0,1.93h.91V35h-.91ZM152.3,35a3.13,3.13,0,0,1-.63.06c-.85,0-1.35-.26-1.35-1.08V31.19h-.68v-.46h.68v-1l.91-.55v1.56h1.17v.46h-1.17v2.47c0,.62.06.93.65.93a1.2,1.2,0,0,0,.42-.07Zm2,0-1.64-4.33h1l1.11,3.06h0l1-3.06h.85l-2.2,6.2h-.73Zm4.41-2.18c0-1.45.63-2.24,1.88-2.24s1.9.79,1.9,2.24-.64,2.23-1.9,2.23S158.68,34.31,158.68,32.87Zm1.88,1.86c.82,0,.91-1.08.91-1.86s-.09-1.87-.91-1.87-.89,1.09-.89,1.87S159.77,34.73,160.56,34.73Zm3.3-3.54h-.74v-.47h.74v-.39c0-.8.19-1.63,1.63-1.63a4.69,4.69,0,0,1,.9.1v.62a1.82,1.82,0,0,0-.79-.19c-.74,0-.83.53-.83,1v.51H166v.47h-1.21V35h-.91ZM64,28.8h1v2.74h0l2-2.74h1l-2.18,2.83L68.27,35H67.1L65,32h0v3H64Z"/>
 <path class="cls-5" d="M71.84,45.87a3.43,3.43,0,0,1-1.14.21c-1.35,0-2.15-.81-2.15-2.41,0-1.27.59-2.06,1.82-2.06s1.53.61,1.53,1.49H71c0-.51,0-1.11-.62-1.11s-.79.61-.79,1.38c0,1,.44,2.24,1.54,2.24a2.25,2.25,0,0,0,.76-.16v.42Zm.93-6.08h1v.9h-1Zm0,1.91h.91V46H72.8Zm5.43,4.14a3.06,3.06,0,0,1-1.25.24c-1.19,0-2.14-.7-2.14-2.42,0-1.19.48-2,1.82-2s1.64.92,1.64,1.75H75.75c0,.84.37,2.25,1.66,2.25a2.06,2.06,0,0,0,.82-.18v.41ZM77.42,43c0-.34-.12-1-.79-1s-.84.71-.86,1Zm2-1.25h.91v1h0a1.68,1.68,0,0,1,1.5-1.11,1.12,1.12,0,0,1,1.08,1.25V46H82V43.31c0-.54-.09-1-.54-1-.9,0-1.15,1.4-1.15,1.93V46h-.91Zm7.87,4.17a3.48,3.48,0,0,1-1.14.21c-1.36,0-2.15-.81-2.15-2.41,0-1.27.58-2.06,1.82-2.06s1.53.61,1.53,1.49h-1c0-.51,0-1.11-.62-1.11s-.79.61-.79,1.38c0,1,.44,2.24,1.54,2.24a2.25,2.25,0,0,0,.76-.16Zm4,0a3,3,0,0,1-1.24.24c-1.19,0-2.14-.7-2.14-2.42,0-1.19.48-2,1.82-2s1.65.92,1.65,1.75H88.75c0,.84.38,2.25,1.66,2.25a2,2,0,0,0,.81-.18ZM90.42,43c0-.34-.12-1-.79-1s-.84.71-.85,1ZM97,45.39h0a1.35,1.35,0,0,1-1.2.69A1.09,1.09,0,0,1,94.66,45c0-1.32,1.82-1.39,2.38-1.41v-.37c0-.47,0-1.24-.6-1.24s-.65.43-.69.93h-1c0-.64.3-1.31,1.64-1.31S98,42.39,98,43.23V46H97ZM97,44c-.37,0-1.4.11-1.4.9a.56.56,0,0,0,.53.63,1,1,0,0,0,.87-1Zm2.28-2.28h.91v1h0a1.69,1.69,0,0,1,1.5-1.11,1.11,1.11,0,0,1,1.08,1.25V46h-.91V43.31c0-.54-.08-1-.54-1-.9,0-1.15,1.4-1.15,1.93V46h-.91V41.7Zm7.33,3.58h0a1.2,1.2,0,0,1-1.12.8c-1.22,0-1.6-1-1.6-2.23s.47-2.24,1.6-2.24a1.18,1.18,0,0,1,1.12.69h0V39.79h.91V46h-.91Zm-.88.23c.74,0,.85-1,.85-1.66s-.07-1.72-.85-1.72-.87,1-.87,1.72S105,45.51,105.77,45.51Zm6.43-5.13h-1.51v-.59h4v.59h-1.49V46h-1Zm5.94,5.46a3.06,3.06,0,0,1-1.25.24c-1.18,0-2.13-.7-2.13-2.42,0-1.19.47-2,1.82-2s1.65.93,1.65,1.75h-2.57c0,.84.38,2.25,1.66,2.25a2,2,0,0,0,.82-.18ZM117.33,43c0-.34-.11-1-.78-1s-.84.71-.86,1Zm4.93,2.92a3.39,3.39,0,0,1-1.14.21c-1.35,0-2.14-.81-2.14-2.4,0-1.28.58-2.07,1.81-2.07s1.54.61,1.54,1.49h-1c0-.51-.05-1.11-.62-1.11s-.79.61-.79,1.38c0,1,.44,2.24,1.54,2.24a2.25,2.25,0,0,0,.76-.16v.42Zm.92-6.08h.9v2.93h0a1.7,1.7,0,0,1,1.5-1.11,1.12,1.12,0,0,1,1.08,1.25V46h-.91V43.31c0-.54-.08-1-.53-1-.9,0-1.16,1.4-1.16,1.93V46h-.9Zm4.89,1.91H129v1h0a1.68,1.68,0,0,1,1.5-1.11,1.11,1.11,0,0,1,1.07,1.25V46h-.91V43.31c0-.54-.08-1-.53-1-.9,0-1.15,1.4-1.15,1.93V46h-.91V41.7Zm4.59,2.15c0-1.45.62-2.24,1.88-2.24s1.9.79,1.9,2.24-.64,2.23-1.9,2.23S132.66,45.29,132.66,43.85Zm1.88,1.86c.81,0,.91-1.08.91-1.86s-.1-1.86-.91-1.86-.9,1.07-.9,1.86S133.74,45.71,134.54,45.71Zm3-5.92h.91V46h-.91Zm2.05,4.06c0-1.45.63-2.24,1.88-2.24s1.9.79,1.9,2.24-.64,2.23-1.9,2.23S139.62,45.29,139.62,43.85Zm1.88,1.86c.81,0,.91-1.08.91-1.86s-.1-1.86-.91-1.86-.9,1.07-.9,1.86S140.71,45.71,141.5,45.71Zm6.32.15c0,1.2-.39,2.14-2.11,2.14a4.65,4.65,0,0,1-1.23-.17v-.89a2.75,2.75,0,0,0,1.37.52c1,0,1.06-.66,1.06-1.6v-.47h0a1.15,1.15,0,0,1-1.12.59c-1.13,0-1.6-.92-1.6-2.18s.37-2.19,1.6-2.19a1.17,1.17,0,0,1,1.12.8h0v-.7h.91v4.15Zm-1.79-.4c.78,0,.86-.91.86-1.62s-.11-1.66-.86-1.66-.87.93-.87,1.62S145.31,45.46,146,45.46Zm4.18.57-1.64-4.32h.94l1.12,3h0l1-3h.85l-2.2,6.2h-.72ZM67.46,40.7a3.54,3.54,0,0,0-1.54-.42c-.55,0-.93.31-.93.78,0,1.3,2.92,1.27,2.92,3.21,0,1.3-1,1.81-2.25,1.81a5.59,5.59,0,0,1-1.58-.23v-1a3.78,3.78,0,0,0,1.73.54c.64,0,1.11-.26,1.11-.89,0-1.42-2.92-1.33-2.92-3.26,0-1,.75-1.59,2-1.59a8.79,8.79,0,0,1,1.43.16v.85Z"/>
</svg>
